# Blender v3.2.2 OBJ File: 'city.blend'
# www.blender.org
mtllib building.mtl
o Cube
v 1.000000 5.995239 -1.000000
v 1.000000 -0.004761 -1.000000
v 1.000000 5.995239 1.000000
v 1.000000 -0.004761 1.000000
v -1.000000 5.995239 -1.000000
v -1.000000 -0.004761 -1.000000
v -1.000000 5.995239 1.000000
v -1.000000 -0.004761 1.000000
v 1.000000 0.192319 -1.000000
v -1.000000 0.192319 1.000000
v 1.000000 0.192319 1.000000
v -1.000000 0.192319 -1.000000
v 1.003518 6.206329 -1.000000
v 1.003518 6.206329 1.000000
v -0.996482 6.206329 -1.000000
v -0.996482 6.206329 1.000000
v 0.892142 6.206329 -0.888624
v 0.892142 6.206329 0.888624
v -0.885105 6.206329 -0.888624
v -0.885105 6.206329 0.888624
v 0.895660 6.002275 -0.888624
v 0.895660 6.002275 0.888624
v -0.881587 6.002275 -0.888624
v -0.881587 6.002275 0.888624
v -1.000000 0.000000 1.000000
v 1.000000 0.000000 1.000000
v -1.000000 0.000000 -1.000000
v 1.000000 0.000000 -1.000000
v -1.000000 0.000000 1.000000
v 1.000000 0.000000 1.000000
v -1.000000 0.000000 -1.000000
v 1.000000 0.000000 -1.000000
vt -0.010114 1.805007
vt -0.030090 -0.989551
vt 0.988889 -0.996059
vt 1.008866 1.798500
vt -0.008286 1.804996
vt -0.028262 -0.989563
vt 0.990717 -0.996071
vt 1.010693 1.798489
vt -0.006458 1.804984
vt -0.026435 -0.989575
vt 0.992544 -0.996083
vt 1.012521 1.798476
vt -0.001286 1.804951
vt -0.021262 -0.989608
vt 0.997717 -0.996116
vt 1.017694 1.798444
vt 0.000000 0.000000
vt 1.000000 0.000000
vt 1.000000 1.000000
vt 0.000000 1.000000
vt 0.000000 0.000000
vt 1.000000 0.000000
vt 1.000000 1.000000
vt 0.000000 1.000000
vt -0.670306 0.998119
vt -0.650217 0.685857
vt -0.623199 0.713244
vt -0.628565 0.957483
vt -0.356453 0.679755
vt -0.334868 0.995853
vt -0.374827 0.964161
vt -0.384748 0.715842
vt -0.610197 0.728819
vt -0.612457 0.944151
vt -0.389141 0.947472
vt -0.400126 0.729083
vt -0.419510 0.755620
vt -0.592816 0.746292
vt -0.416825 0.926941
vt -0.583418 0.915705
vt 0.231653 0.273208
vt 0.716070 0.270073
vt 0.719343 0.734015
vt 0.234926 0.737149
vt 3.668646 0.760011
vt 3.637293 0.278658
vt -3.028142 0.319463
vt -2.996779 0.800936
vt 3.728585 0.765195
vt 3.697197 0.282424
vt -2.967951 0.326962
vt -2.936598 0.809500
vt 3.789847 0.785585
vt 3.764133 0.302138
vt -2.900569 0.297876
vt -2.875443 0.781339
vt 3.653834 0.807104
vt 3.621748 0.326567
vt -3.043170 0.372538
vt -3.013616 0.850445
vn 0.0000 0.0000 1.0000
vn -1.0000 0.0000 0.0000
vn 1.0000 0.0000 0.0000
vn 0.0000 0.0000 -1.0000
vn 0.0000 1.0000 0.0000
vn -0.9999 0.0167 0.0000
vn 0.9999 -0.0167 0.0000
vn 0.9999 0.0172 0.0000
vn -0.9999 -0.0172 0.0000
usemtl Sides
s off
f 11/1/1 3/2/1 7/3/1 10/4/1
f 10/5/2 7/6/2 5/7/2 12/8/2
f 9/9/3 1/10/3 3/11/3 11/12/3
f 12/13/4 5/14/4 1/15/4 9/16/4
f 25/17/5 26/18/5 28/19/5 27/20/5
f 29/21/5 30/22/5 32/23/5 31/24/5
usemtl Balacony
f 1/25/4 5/26/4 15/27/4 13/28/4
f 7/29/1 3/30/1 14/31/1 16/32/1
f 5/26/6 7/29/6 16/32/6 15/27/6
f 3/30/7 1/25/7 13/28/7 14/31/7
f 13/28/5 15/27/5 19/33/5 17/34/5
f 14/31/5 13/28/5 17/34/5 18/35/5
f 15/27/5 16/32/5 20/36/5 19/33/5
f 16/32/5 14/31/5 18/35/5 20/36/5
f 19/33/8 20/36/8 24/37/8 23/38/8
f 20/36/4 18/35/4 22/39/4 24/37/4
f 17/34/1 19/33/1 23/38/1 21/40/1
f 18/35/9 17/34/9 21/40/9 22/39/9
usemtl Rooftop_Floor
f 22/41/5 21/42/5 23/43/5 24/44/5
usemtl Ground_Floor
f 6/45/4 12/46/4 9/47/4 2/48/4
f 2/49/3 9/50/3 11/51/3 4/52/3
f 8/53/2 10/54/2 12/55/2 6/56/2
f 4/57/1 11/58/1 10/59/1 8/60/1
o Cube.001
v -1.034158 0.177102 1.034158
v -1.034158 0.198153 1.034158
v -1.034158 0.177102 -1.034158
v -1.034158 0.198153 -1.034158
v 1.034158 0.177102 1.034158
v 1.034158 0.198153 1.034158
v 1.034158 0.177102 -1.034158
v 1.034158 0.198153 -1.034158
vt 0.375000 0.000000
vt 0.625000 0.000000
vt 0.625000 0.250000
vt 0.375000 0.250000
vt 0.625000 0.500000
vt 0.375000 0.500000
vt 0.625000 0.750000
vt 0.375000 0.750000
vt 0.625000 1.000000
vt 0.375000 1.000000
vt 0.125000 0.500000
vt 0.125000 0.750000
vt 0.875000 0.500000
vt 0.875000 0.750000
vn -1.0000 0.0000 0.0000
vn 0.0000 0.0000 -1.0000
vn 1.0000 0.0000 0.0000
vn 0.0000 0.0000 1.0000
vn 0.0000 -1.0000 0.0000
vn 0.0000 1.0000 0.0000
usemtl Material
s off
f 33/61/10 34/62/10 36/63/10 35/64/10
f 35/64/11 36/63/11 40/65/11 39/66/11
f 39/66/12 40/65/12 38/67/12 37/68/12
f 37/68/13 38/67/13 34/69/13 33/70/13
f 35/71/14 39/66/14 37/68/14 33/72/14
f 40/65/15 36/73/15 34/74/15 38/67/15
